<svg width="350" height="250" viewBox="0 0 350 250" fill="none" xmlns="http://www.w3.org/2000/svg">
<path opacity="0.42" d="M82.1376 225.738C70.2745 221.187 58.334 215.942 49.1588 207.172C34.6571 193.332 28.9788 171.88 31.6315 152.05C34.2842 132.22 44.5078 113.97 57.7078 98.9221C66.9886 88.3892 77.8033 79.1063 86.1694 67.794C99.5382 49.7197 107.538 25.6626 127.803 15.9162C135.543 12.1946 144.246 11.0571 152.81 11.0009C176.479 10.9026 199.481 18.8163 220.934 28.7804C229.54 32.7758 238.187 37.2628 244.576 44.2285C255.933 56.7275 258.205 74.5982 263.335 90.6643C270.183 111.858 282.643 130.81 299.395 145.519C307.396 152.541 316.866 159.331 319.364 169.654C321.116 176.914 318.977 184.533 316.226 191.478C312.954 199.714 308.669 207.776 302.118 213.758C288.363 226.306 267.922 227.275 249.297 227.563L205.356 228.265C185.542 228.574 166.46 234.747 146.955 234.206C123.419 233.504 104.696 234.382 82.1376 225.738Z" fill="#68FDB6"/>
<path d="M239.738 216.069C239.738 216.069 226.442 209.047 219.036 207.221C215.61 206.364 211.097 201.568 206.805 195.929C205.421 194.076 204.037 192.123 202.653 190.192C202.653 190.192 179.721 152.49 192.194 144.253C192.194 144.253 197.544 144.134 200.5 145.749C203.455 147.364 209.948 161.029 211.035 163.445C212.121 165.861 223.943 188.254 224.732 188.76C225.521 189.265 226.843 191.105 231.571 193.675C237.357 196.835 246.452 206.09 246.452 206.09L239.738 216.069Z" fill="#68FDB6"/>
<path d="M239.738 216.069C239.738 216.069 226.442 209.047 219.036 207.221C215.61 206.364 211.097 201.568 206.805 195.929C205.421 194.076 204.037 192.123 202.653 190.192C202.653 190.192 179.721 152.49 192.194 144.253C192.194 144.253 197.544 144.134 200.5 145.749C203.455 147.364 209.948 161.029 211.035 163.445C212.121 165.861 223.943 188.254 224.732 188.76C225.521 189.265 226.843 191.105 231.571 193.675C237.357 196.835 246.452 206.09 246.452 206.09L239.738 216.069Z" fill="url(#paint0_linear)"/>
<path d="M198.583 166.639C199.139 159.293 199.52 152.431 199.728 146.052C197.947 145.116 195.812 144.018 194.074 143.237C188.78 140.726 181.395 137.341 176.66 135.181C173.89 133.915 171.176 132.986 171.176 132.986C171.176 132.986 152.243 131.178 150.681 131.276C148.653 131.822 146.663 132.499 144.723 133.303C138.016 135.843 125.069 141 123.013 142.449C119.988 144.602 109.175 197.329 108.878 200.953C108.596 204.428 123.585 209.192 137.458 212.843C137.458 218.19 137.338 225.684 137.218 232.544C137.218 233.712 137.175 234.858 137.154 235.97H197.883C197.798 234.795 197.728 233.634 197.671 232.544V232.107C197.438 227.478 196.533 219.175 196.766 211.091C196.766 211.091 196.618 202.578 197.473 198.905C197.6 182.673 198.583 166.639 198.583 166.639ZM121.585 197.66C121.677 190.793 130.864 178.009 130.864 178.009C131.005 177.947 131.149 177.893 131.295 177.847C131.295 177.847 131.769 177.783 131.769 177.79C131.769 177.798 133.182 176.447 133.182 176.447C133.515 177.664 136.561 194.923 137.31 204.97C128.744 203.281 121.536 200.931 121.585 197.66Z" fill="white"/>
<path d="M198.583 166.639C199.139 159.293 199.52 152.431 199.728 146.052C197.947 145.116 195.812 144.018 194.074 143.237C188.78 140.726 181.395 137.341 176.66 135.181C173.89 133.915 171.176 132.986 171.176 132.986C171.176 132.986 152.243 131.178 150.681 131.276C148.653 131.822 146.663 132.499 144.723 133.303C138.016 135.843 125.069 141 123.013 142.449C119.988 144.602 109.175 197.329 108.878 200.953C108.596 204.428 123.585 209.192 137.458 212.843C137.458 218.19 137.338 225.684 137.218 232.544C137.218 233.712 137.175 234.858 137.154 235.97H197.883C197.798 234.795 197.728 233.634 197.671 232.544V232.107C197.438 227.478 196.533 219.175 196.766 211.091C196.766 211.091 196.618 202.578 197.473 198.905C197.6 182.673 198.583 166.639 198.583 166.639ZM121.585 197.66C121.677 190.793 130.864 178.009 130.864 178.009C131.005 177.947 131.149 177.893 131.295 177.847C131.295 177.847 131.769 177.783 131.769 177.79C131.769 177.798 133.182 176.447 133.182 176.447C133.515 177.664 136.561 194.923 137.31 204.97C128.744 203.281 121.536 200.931 121.585 197.66Z" fill="url(#paint1_linear)"/>
<path d="M199.212 232.535C198.816 229.664 198.434 226.794 198.095 223.987C198.095 223.987 198.095 223.987 198.095 223.951C197.989 223.013 197.875 222.089 197.769 221.172C197.769 221.13 197.769 221.081 197.769 221.024C197.324 217.159 196.956 213.449 196.688 210.057C196.523 207.508 196.637 204.949 197.027 202.425C198.088 185.06 198.611 166.75 198.611 166.75C199.169 159.26 199.487 152.249 199.699 145.725C199.699 145.725 175.926 134.51 173.77 133.868C173.77 133.868 178.28 144.448 181.659 168.055C182.959 177.125 185.363 192.388 187.116 207.976C188.063 216.383 189.838 224.953 191.181 232.535C191.393 233.706 191.584 234.849 191.768 235.97H199.728C199.537 234.827 199.374 233.678 199.212 232.535Z" fill="#68FDB6"/>
<path d="M160.044 204.642C160.97 195.879 161.813 187.137 161.405 182.344C158.148 143.822 148.938 133.63 147.605 132.138C146.566 132.532 142.635 134.01 141.483 134.467C135.166 136.959 122.34 141.506 120.607 142.773C117.609 144.927 105.774 200.264 105.416 203.839C105.177 206.26 120.621 211.314 136.38 215.805C136.233 220.14 136.64 226.25 135.208 232.627C134.844 233.71 134.609 234.832 134.506 235.97L156.471 235.886C156.604 234.745 156.744 233.605 156.878 232.458C157.299 229.016 157.734 225.49 158.169 221.738C164.754 223.448 169.232 224.554 169.232 224.554C169.232 224.554 175.424 214.066 177.221 209.815C177.544 209.111 169.576 207.232 160.044 204.642ZM129.115 191.831C128.988 187.109 129.787 182.408 131.466 177.994C132.245 180.696 133.326 188.418 134.274 196.09C131.08 194.478 129.157 193.422 129.115 191.831V191.831Z" fill="#68FDB6"/>
<path d="M150.407 132.025C150.407 132.025 152.759 127.275 152.111 113.794C151.931 110.062 170.448 122.644 170.448 122.644C170.448 122.644 170.386 123.934 170.345 125.667C170.345 126.405 170.31 127.187 170.31 127.998C170.31 128.227 170.31 128.448 170.31 128.669C170.31 129.038 170.31 129.407 170.31 129.768C170.31 130.129 170.31 130.668 170.352 131.095C170.393 131.523 170.407 132.039 170.448 132.46C170.588 133.366 170.82 134.254 171.138 135.107C171.993 137.209 157.345 137.349 150.407 132.025Z" fill="#E4AA8B"/>
<path d="M165.604 139.925L168.386 143.402C169.046 144.223 169.504 144.737 169.437 145.836C169.353 147.071 168.766 148.229 167.794 149.077C167.675 149.204 167.526 149.303 167.357 149.366C167.189 149.429 167.007 149.454 166.826 149.439C166.609 149.368 166.417 149.242 166.271 149.077C165.169 148.173 164.243 147.101 163.534 145.906C163.136 145.099 163.631 144.445 163.976 143.653L165.604 139.925Z" fill="#18202D"/>
<path d="M168.192 145.286C169.33 146.034 169.843 149.132 170.447 150.391C171.853 153.342 173.595 156.132 174.797 159.188C176.322 163.069 176.905 167.237 177.425 171.37C178.24 178.176 178.769 185.006 179.013 191.86C179.196 196.944 179.217 202.049 179.99 207.077C180.475 210.237 181.24 213.552 180.088 216.531C179.21 218.804 177.334 220.524 175.471 222.126C174.01 220.846 172.499 219.489 171.775 217.692C171.393 216.645 171.157 215.551 171.073 214.44L169.555 201.09C169 196.153 168.438 191.223 168.009 186.272C167.7 182.776 167.461 179.279 167.468 175.782C167.468 172.733 167.672 169.685 167.377 166.65C167.068 163.44 166.203 160.3 165.796 157.097C165.423 154.188 164.137 148.041 166.533 145.684C167.229 145.055 167.756 144.992 168.192 145.286Z" fill="#18202D"/>
<path d="M169.443 135.284L165.836 139.925C165.836 139.925 160.044 138.69 158.349 135.367C156.655 132.044 169.443 135.284 169.443 135.284Z" fill="#E4AA8B"/>
<path d="M170.249 131.272C170.249 131.272 169.849 134.731 165.982 139.786L172.904 148.578L172.485 133.009L170.249 131.272Z" fill="white"/>
<path d="M151.441 126.946C151.441 126.946 159.999 136.874 165.982 139.301L161.724 149.443L149.542 130.886L151.441 126.946Z" fill="white"/>
<path d="M170.249 131.272C170.249 131.272 169.849 134.731 165.982 139.786L172.904 148.578L172.485 133.009L170.249 131.272Z" fill="url(#paint2_linear)"/>
<path d="M151.441 126.946C151.441 126.946 159.999 136.874 165.982 139.301L161.724 149.443L149.542 130.886L151.441 126.946Z" fill="url(#paint3_linear)"/>
<path d="M184.815 229.048C184.034 229.027 183.262 228.885 182.526 228.627C182.526 228.627 181.332 227.868 180.419 227.386C180.192 227.255 179.958 227.138 179.717 227.034C178.343 226.644 177.043 226.036 175.869 225.234C174.359 224.11 169.443 219.592 169.443 219.592L172.624 214.764L174.085 210.012C174.085 210.012 185.546 211.136 187.077 212.026C187.22 212.111 187.358 212.203 187.491 212.302C188.713 213.178 189.246 214.371 189.829 214.868C190.047 215.068 192.041 217.164 191.936 218.013C191.908 218.49 191.756 218.952 191.494 219.356C191.232 219.759 190.869 220.09 190.44 220.316C190.44 220.316 190.04 222.613 188.825 223.641C188.722 224.271 188.472 224.869 188.094 225.388C187.716 225.907 187.221 226.334 186.648 226.634C186.648 226.634 186.114 228.793 184.815 229.048Z" fill="#E5AB8C"/>
<path d="M166.138 81.4562C166.138 81.4562 187.089 76.5933 182.677 102.161C178.265 127.729 173.235 129.804 160.476 124.708C147.717 119.612 148.605 103.257 147.845 95.2571C147.085 87.2574 159.453 81.8329 166.138 81.4562Z" fill="#E4A98A"/>
<path d="M156.196 99.3456C155.854 97.2245 150.787 96.5067 150.437 99.6948C150.087 102.883 152.889 108.444 154.795 107.869C156.702 107.293 156.663 102.269 156.196 99.3456Z" fill="#E4A98A"/>
<path d="M178.096 209.481L169.577 224.722C169.577 224.722 147.021 218.666 141.754 217.123L153.812 202.225C153.812 202.225 171.528 206.439 178.096 209.481Z" fill="#68FDB6"/>
<path d="M169.443 130.407C166.432 130.175 163.525 129.268 160.965 127.763C158.405 126.257 156.268 124.196 154.734 121.754C158.623 125.417 163.844 127.567 169.35 127.772C169.35 127.966 169.35 128.155 169.35 128.343C169.35 128.656 169.35 128.97 169.35 129.278C169.35 129.585 169.423 130.075 169.443 130.407Z" fill="#A07A64"/>
<path d="M158.465 238.566H266.083C269.099 238.566 271.545 236.049 271.545 232.945V232.938C271.545 229.834 269.099 227.317 266.083 227.317H158.465C155.448 227.317 153.003 229.834 153.003 232.938V232.945C153.003 236.049 155.448 238.566 158.465 238.566Z" fill="#68FDB6"/>
<path d="M158.465 238.566H266.083C269.099 238.566 271.545 236.049 271.545 232.945V232.938C271.545 229.834 269.099 227.317 266.083 227.317H158.465C155.448 227.317 153.003 229.834 153.003 232.938V232.945C153.003 236.049 155.448 238.566 158.465 238.566Z" fill="url(#paint4_linear)"/>
<path d="M199.728 228.19L201.529 233.95L277.981 238.566L299.76 183.719C300.051 182.989 300.157 182.198 300.069 181.418C299.981 180.637 299.703 179.889 299.258 179.24C298.813 178.591 298.215 178.059 297.516 177.692C296.816 177.324 296.037 177.132 295.246 177.132H230.451C227.314 177.133 224.251 178.07 221.657 179.821C219.063 181.572 217.059 184.057 215.905 186.953L199.728 228.19Z" fill="#68FDB6"/>
<path d="M199.728 228.19L201.529 233.95L277.981 238.566L299.76 183.719C300.051 182.989 300.157 182.198 300.069 181.418C299.981 180.637 299.703 179.889 299.258 179.24C298.813 178.591 298.215 178.059 297.516 177.692C296.816 177.324 296.037 177.132 295.246 177.132H230.451C227.314 177.133 224.251 178.07 221.657 179.821C219.063 181.572 217.059 184.057 215.905 186.953L199.728 228.19Z" fill="url(#paint5_linear)"/>
<path d="M199.728 238.566H278.211L298.913 186.037C299.188 185.337 299.288 184.581 299.205 183.833C299.121 183.086 298.857 182.37 298.434 181.748C298.011 181.126 297.442 180.617 296.778 180.265C296.113 179.913 295.373 179.728 294.621 179.728H233.03C230.048 179.726 227.135 180.622 224.669 182.3C222.204 183.978 220.3 186.36 219.207 189.135L199.728 238.566Z" fill="#68FDB6"/>
<path d="M199.728 238.566H278.211L298.913 186.037C299.188 185.337 299.288 184.581 299.205 183.833C299.121 183.086 298.857 182.37 298.434 181.748C298.011 181.126 297.442 180.617 296.778 180.265C296.113 179.913 295.373 179.728 294.621 179.728H233.03C230.048 179.726 227.135 180.622 224.669 182.3C222.204 183.978 220.3 186.36 219.207 189.135L199.728 238.566Z" fill="url(#paint6_linear)"/>
<path d="M96.7605 138.321V162.148C96.7605 162.752 96.6401 163.35 96.4062 163.908C96.1723 164.467 95.8294 164.974 95.3972 165.401C94.9649 165.828 94.4518 166.167 93.887 166.398C93.3223 166.63 92.717 166.749 92.1057 166.749H52.9602C51.7262 166.747 50.5434 166.261 49.6708 165.399C48.7983 164.537 48.3073 163.367 48.3054 162.148V138.321C48.3085 138.064 48.3299 137.808 48.3695 137.554L76.0703 155.971L96.6253 137.329C96.7067 137.654 96.752 137.987 96.7605 138.321Z" fill="white"/>
<path d="M158.077 102.768C157.546 101.366 156.866 99.852 155.498 99.3754C153.708 98.7585 151.769 100.595 151.68 102.544C151.592 104.492 152.851 106.266 154.361 107.45C153.473 110.579 152.335 113.627 150.959 116.563C149.269 111.123 148.39 105.451 148.353 99.7399C147.673 99.5366 147.312 98.7095 147.162 97.9734C146.21 93.3121 148.564 88.6507 151.129 84.6552C152.164 82.8708 153.506 81.2959 155.09 80.0078C158.635 77.4143 163.35 77.7367 167.678 77.3372C171.244 77.0077 174.966 76.1385 178.286 77.5054C180.654 78.5993 182.578 80.5074 183.73 82.9028C184.872 85.2863 185.659 87.8338 186.064 90.4592C186.644 93.0923 186.857 95.7971 186.697 98.4921C186.523 101.205 185.509 103.79 183.805 105.866C183.329 106.406 182.09 107.044 181.519 106.616C182.07 104.338 182.328 101.996 182.287 99.6487C182.219 97.63 182.206 96.4173 180.927 94.8962C180.677 94.5595 180.363 94.278 180.006 94.0685C179.648 93.859 179.253 93.7257 178.844 93.6766C178.062 93.6766 177.327 94.1182 176.551 94.1462C175.143 94.2093 174.067 92.9406 172.836 92.2326C172.07 91.8137 171.22 91.5842 170.353 91.5623C169.486 91.5404 168.626 91.7267 167.841 92.1064C167.054 92.4909 166.348 93.0319 165.764 93.6983C165.18 94.3647 164.73 95.1435 164.439 95.9897C164.085 97.0061 163.759 98.3029 162.724 98.5342C161.363 98.8286 160.356 96.7958 159.179 97.6019C158.131 98.352 158.186 101.632 158.077 102.768Z" fill="#18202D"/>
<path d="M134.901 195.228L150.407 200.494C150.407 200.494 145.351 168.816 144.09 167.503C142.83 166.19 127.91 149.443 127.91 149.443C127.91 149.443 135.717 165.834 132.191 177.273" fill="url(#paint7_linear)"/>
<path d="M169.081 224.722L172.904 217.613C172.904 217.613 114.024 199.537 113.24 198.343C112.456 197.148 114.221 166.749 114.221 166.749L105.413 203.904C105.413 203.904 123.945 214.737 169.081 224.722Z" fill="url(#paint8_linear)"/>
<path d="M151.272 220.445V235.88L134.832 235.97C134.832 235.97 137.135 224.974 136.709 216.069L151.272 220.445Z" fill="url(#paint9_linear)"/>
<path d="M95.8952 134.891L75.6329 153.769L48.3054 135.148C48.489 134.064 49.0437 133.081 49.8716 132.372C50.6996 131.663 51.7476 131.273 52.8308 131.272H91.419C92.4589 131.27 93.4685 131.627 94.2819 132.285C95.0954 132.943 95.6643 133.862 95.8952 134.891V134.891Z" fill="white"/>
<path d="M131.804 76.7605C140.167 76.7605 146.946 69.7874 146.946 61.1857C146.946 52.5839 140.167 45.6108 131.804 45.6108C123.441 45.6108 116.662 52.5839 116.662 61.1857C116.662 69.7874 123.441 76.7605 131.804 76.7605Z" fill="white"/>
<path d="M125.319 83.6826L120.988 71.5688H142.62L139.189 83.3681L125.319 83.6826Z" fill="white"/>
<path d="M126.18 85.4131H138.293V86.6072C138.293 87.1321 138.208 87.652 138.041 88.137C137.874 88.622 137.63 89.0626 137.322 89.4339C137.014 89.8051 136.648 90.0995 136.246 90.3004C135.843 90.5013 135.412 90.6047 134.976 90.6047H129.497C129.061 90.6047 128.63 90.5013 128.228 90.3004C127.825 90.0995 127.459 89.8051 127.151 89.4339C126.843 89.0626 126.599 88.622 126.432 88.137C126.266 87.652 126.18 87.1321 126.18 86.6072V85.4131Z" fill="white"/>
<g opacity="0.42">
<path opacity="0.42" d="M128.548 83.8537C127.438 81.3959 126.817 78.7457 126.719 76.0506C126.608 73.2866 127.56 70.5853 129.378 68.5007C129.614 68.1972 129.907 67.9438 130.242 67.7553C130.577 67.5668 130.946 67.4471 131.327 67.4031C131.797 67.4186 132.253 67.5643 132.644 67.824C133.035 68.0837 133.347 68.4471 133.544 68.8736C133.983 68.5987 134.497 68.466 135.014 68.4937C136.358 68.5922 137.266 69.8657 137.575 71.09C137.813 72.248 137.846 73.4387 137.674 74.6082C137.331 77.726 136.635 80.7947 135.598 83.7552L134.937 83.523C135.957 80.6062 136.639 77.582 136.97 74.5096C137.145 73.4094 137.119 72.2865 136.893 71.1956C136.647 70.2176 135.957 69.2043 134.965 69.134C134.569 69.1124 134.178 69.2238 133.853 69.4506C133.896 69.5562 133.931 69.6547 133.966 69.7602C134.381 71.0618 134.487 72.4422 134.275 73.7919C134.212 74.4562 133.924 75.079 133.459 75.558C133.298 75.7019 133.108 75.8106 132.902 75.8772C132.696 75.9438 132.478 75.9669 132.263 75.945C132.095 75.9324 131.932 75.8853 131.783 75.8066C131.634 75.7279 131.503 75.6193 131.398 75.4877C131.206 75.2047 131.101 74.8723 131.095 74.5308C130.955 72.9533 131.368 71.3762 132.263 70.0698C132.465 69.7667 132.701 69.4881 132.967 69.2395C132.834 68.9096 132.612 68.6227 132.327 68.4104C132.041 68.1982 131.703 68.0687 131.348 68.0363C130.762 68.1264 130.234 68.442 129.878 68.9159C128.202 70.8691 127.321 73.3801 127.408 75.9521C127.506 78.5573 128.108 81.1189 129.181 83.4949L128.548 83.8537ZM133.283 69.9924C133.122 70.1566 132.976 70.3357 132.847 70.5271C132.048 71.702 131.676 73.1148 131.792 74.5308C131.795 74.7392 131.853 74.943 131.961 75.1218C132.004 75.178 132.059 75.2241 132.123 75.2569C132.186 75.2897 132.255 75.3084 132.326 75.3118C132.453 75.3284 132.581 75.3176 132.702 75.2799C132.824 75.2423 132.936 75.1787 133.03 75.0937C133.371 74.7218 133.577 74.2459 133.614 73.7427C133.81 72.5016 133.713 71.232 133.333 70.0346C133.333 70.0346 133.29 70.0135 133.283 69.9994V69.9924Z" fill="#68FDB6"/>
</g>
<path d="M254.645 91.47H204.513C202.348 91.47 200.593 93.2272 200.593 95.3949V128.213C200.593 130.38 202.348 132.138 204.513 132.138H254.645C256.811 132.138 258.566 130.38 258.566 128.213V95.3949C258.566 93.2272 256.811 91.47 254.645 91.47Z" fill="white"/>
<path opacity="0.42" d="M215.302 102.719H203.189V113.102H215.302V102.719Z" fill="#68FDB6"/>
<path opacity="0.42" d="M229.147 102.719H217.033V113.102H229.147V102.719Z" fill="#68FDB6"/>
<path opacity="0.42" d="M215.302 115.698H203.189V126.946H215.302V115.698Z" fill="#68FDB6"/>
<path opacity="0.42" d="M229.147 115.698H217.033V126.946H229.147V115.698Z" fill="#68FDB6"/>
<path opacity="0.42" d="M241.26 102.719H230.877V113.102H241.26V102.719Z" fill="#68FDB6"/>
<path opacity="0.42" d="M255.97 102.719H244.722V113.102H255.97V102.719Z" fill="#68FDB6"/>
<path opacity="0.42" d="M241.26 115.698H230.877V126.946H241.26V115.698Z" fill="#68FDB6"/>
<path opacity="0.42" d="M255.97 115.698H244.722V126.946H255.97V115.698Z" fill="#68FDB6"/>
<defs>
<linearGradient id="paint0_linear" x1="194.887" y1="198.71" x2="218.929" y2="178.121" gradientUnits="userSpaceOnUse">
<stop offset="0.01"/>
<stop offset="0.83" stop-opacity="0.07"/>
<stop offset="1" stop-opacity="0"/>
</linearGradient>
<linearGradient id="paint1_linear" x1="8225.71" y1="26558" x2="20896.9" y2="27982.1" gradientUnits="userSpaceOnUse">
<stop offset="0.01"/>
<stop offset="0.83" stop-opacity="0.07"/>
<stop offset="1" stop-opacity="0"/>
</linearGradient>
<linearGradient id="paint2_linear" x1="1465.69" y1="2933.02" x2="1870.5" y2="3276.7" gradientUnits="userSpaceOnUse">
<stop offset="0.01"/>
<stop offset="0.83" stop-opacity="0.07"/>
<stop offset="1" stop-opacity="0"/>
</linearGradient>
<linearGradient id="paint3_linear" x1="3018.51" y1="3909.59" x2="3504.06" y2="4663.14" gradientUnits="userSpaceOnUse">
<stop offset="0.01"/>
<stop offset="0.83" stop-opacity="0.07"/>
<stop offset="1" stop-opacity="0"/>
</linearGradient>
<linearGradient id="paint4_linear" x1="212.041" y1="243.859" x2="212.572" y2="220.396" gradientUnits="userSpaceOnUse">
<stop offset="0.01"/>
<stop offset="0.12" stop-opacity="0.75"/>
<stop offset="1" stop-opacity="0"/>
</linearGradient>
<linearGradient id="paint5_linear" x1="30530.9" y1="14722.9" x2="31926" y2="22397.4" gradientUnits="userSpaceOnUse">
<stop offset="0.01"/>
<stop offset="0.12" stop-opacity="0.75"/>
<stop offset="1" stop-opacity="0"/>
</linearGradient>
<linearGradient id="paint6_linear" x1="31606.8" y1="21890.5" x2="31773.6" y2="14746.7" gradientUnits="userSpaceOnUse">
<stop offset="0.01"/>
<stop offset="0.12" stop-opacity="0.75"/>
<stop offset="1" stop-opacity="0"/>
</linearGradient>
<linearGradient id="paint7_linear" x1="2908.99" y1="14648.4" x2="4706.73" y2="13974.1" gradientUnits="userSpaceOnUse">
<stop offset="0.01"/>
<stop offset="0.83" stop-opacity="0.07"/>
<stop offset="1" stop-opacity="0"/>
</linearGradient>
<linearGradient id="paint8_linear" x1="8726.71" y1="21009.8" x2="10905.9" y2="15729.7" gradientUnits="userSpaceOnUse">
<stop offset="0.01"/>
<stop offset="0.83" stop-opacity="0.07"/>
<stop offset="1" stop-opacity="0"/>
</linearGradient>
<linearGradient id="paint9_linear" x1="2933.11" y1="5752.78" x2="2784.47" y2="7797.39" gradientUnits="userSpaceOnUse">
<stop offset="0.01"/>
<stop offset="0.83" stop-opacity="0.07"/>
<stop offset="1" stop-opacity="0"/>
</linearGradient>
</defs>
</svg>
